<svg width="135" height="102" viewBox="0 0 135 102" fill="none" xmlns="http://www.w3.org/2000/svg">
<path d="M60.5993 1.1591L62.3119 3.5729L61.3184 3.63685C50.9578 4.29685 43.1554 6.47062 37.9524 8.47335C36.477 9.04125 35.2107 9.59612 34.1538 10.0982C62.2059 3.20855 91.9245 8.35914 115.987 24.3012C115.246 23.6018 114.387 22.8263 113.404 21.9942C109.282 18.5059 102.993 14.013 94.2713 9.85166L93.4174 9.44406L96.2614 7.42618L96.4877 7.46463C96.9438 7.54213 97.6329 7.6595 98.5445 7.85871L99.53 8.0866L99.5423 8.08969L99.5422 8.09066C115.498 12.3762 127.668 25.3561 130.884 41.6407C133.458 54.0395 134.328 66.6706 133.428 79.3131C132.886 86.8938 128.15 93.4359 121.243 96.5178L121.237 96.5209C112.529 100.281 103.014 101.388 93.7455 99.8133L93.4961 99.7709L93.3644 99.5554C93.3639 99.5547 93.363 99.5524 93.3621 99.551C93.3605 99.5483 93.3575 99.5441 93.3543 99.5388C93.3478 99.5282 93.338 99.5127 93.3256 99.4923C93.3004 99.4511 93.2635 99.3902 93.2157 99.3112C93.1198 99.1528 92.98 98.9212 92.8055 98.6293C92.4566 98.0456 91.9676 97.2188 91.4056 96.2469C90.2824 94.3043 88.865 91.7734 87.698 89.4377L87.3423 88.7275L88.1321 88.6378C97.8112 87.5418 104.023 84.1598 107.225 81.8866C93.2229 87.1687 80.5465 88.4256 68.2741 86.564C55.0719 84.5612 42.375 78.9582 29.0366 70.9555C27.5263 70.0493 26.0631 69.0644 24.6522 68.0124L24.3639 67.797C24.9408 68.6866 25.743 69.7974 26.8105 71.0329C29.429 74.0636 33.6402 77.8487 40.021 80.9814L40.7909 81.3588L40.1311 81.9074C37.9669 83.7075 35.7797 85.6344 34.1323 87.1127C33.3088 87.8517 32.6203 88.4781 32.1383 88.9195C31.8976 89.1399 31.7085 89.3145 31.5794 89.4337C31.5149 89.4933 31.4647 89.5392 31.4314 89.57C31.4148 89.5854 31.4022 89.5974 31.3938 89.6052C31.3897 89.609 31.3865 89.6116 31.3844 89.6135L31.382 89.6161L31.1807 89.8038L30.9102 89.7578C21.8431 88.217 13.3264 84.0444 6.63233 77.7682L6.62288 77.7596L7.01218 77.3632L6.62304 77.7587C1.51256 72.7366 -0.623885 65.2387 1.19522 58.298C4.5068 45.5446 9.70464 33.3228 16.4147 21.9848C24.2301 8.72627 38.5254 0.557428 53.9512 0.555382L53.9581 0.555564L53.966 0.555911C56.1463 0.613668 58.2231 0.755318 60.3731 1.12066L60.5993 1.1591ZM50.5784 41.0915C44.5973 40.281 38.9867 44.2665 37.7837 50.183C36.5142 56.4941 40.513 62.5982 46.7036 63.8589C52.6747 64.6692 58.1934 60.6795 59.4992 54.7686C60.7689 48.4569 56.7701 42.3516 50.5784 41.0915ZM91.6614 48.0728C85.6802 47.2622 80.0696 51.2477 78.8667 57.1642C77.5972 63.4753 81.5959 69.5794 87.7866 70.8401C93.7682 71.6519 99.3793 67.6671 100.582 61.7498C101.852 55.4381 97.853 49.3328 91.6614 48.0728Z" fill="#89E5E0" stroke="black" stroke-width="1.11108"/>
</svg>
