<svg width="51" height="33" viewBox="0 0 51 33" fill="none" xmlns="http://www.w3.org/2000/svg">
<path d="M9.6091 3.82619L3.84679 28.8262C3.41354 30.7058 4.84121 32.5 6.77014 32.5H43.2475C44.7514 32.5 46.0229 31.3865 46.2212 29.8957L49.5481 4.89574C49.7874 3.09753 48.3884 1.5 46.5743 1.5H12.5325C11.1352 1.5 9.92293 2.46463 9.6091 3.82619Z" fill="white" stroke="#008079"/>
<path d="M6.58294 2.7823L0.915999 25.7823C0.45009 27.6733 1.88139 29.5 3.82889 29.5H40.2712C41.7649 29.5 43.031 28.4012 43.2413 26.9225L46.5131 3.9225C46.7702 2.11576 45.368 0.5 43.543 0.5H9.49582C8.11541 0.5 6.91318 1.44197 6.58294 2.7823Z" fill="white" stroke="#008079"/>
<path fill-rule="evenodd" clip-rule="evenodd" d="M14 22.9C14 22.1268 14.6268 21.5 15.4 21.5H23.8C24.5732 21.5 25.2 22.1268 25.2 22.9C25.2 23.6732 24.5732 24.3 23.8 24.3H15.4C14.6268 24.3 14 23.6732 14 22.9ZM14 8.9C14 8.12679 14.6268 7.5 15.4 7.5H32.2C32.9732 7.5 33.6 8.12679 33.6 8.9C33.6 9.67319 32.9732 10.3 32.2 10.3H15.4C14.6268 10.3 14 9.67319 14 8.9ZM14 15.9C14 15.1268 14.6268 14.5 15.4 14.5H32.2C32.9732 14.5 33.6 15.1268 33.6 15.9C33.6 16.6732 32.9732 17.3 32.2 17.3H15.4C14.6268 17.3 14 16.6732 14 15.9Z" fill="#008079"/>
</svg>
