<svg width="287" height="242" viewBox="0 0 287 242" fill="none" xmlns="http://www.w3.org/2000/svg">
<path d="M266.858 4.61252C272.582 -1.14442 281.725 6.12738 277.404 13.0007L277.402 13.0044C235.633 79.2095 215.717 120.159 216.544 156.375C217.368 192.435 238.793 224.402 282.058 272.592L282.057 272.592C284.651 275.32 284.071 278.875 282.302 281.099C280.532 283.324 277.226 284.723 273.867 283.195L273.773 283.153L273.684 283.103C217.183 251.579 181.126 238.01 145.679 245.484C110.068 252.993 74.4708 281.84 19.3655 337.438L19.3617 337.441C13.6372 343.198 4.49462 335.926 8.81509 329.053L8.81737 329.049C50.5865 262.845 70.5932 221.78 69.8518 185.449C69.1137 149.285 47.78 117.209 4.53113 69.0343C-1.0425 63.3346 6.08583 54.3682 12.8939 58.5087C69.3992 90.0343 105.365 103.711 140.723 96.3457C176.242 88.9463 211.748 60.2135 266.854 4.61497L266.858 4.61252Z" fill="#89E5E0" stroke="black" stroke-width="5"/>
</svg>
