<svg width="83" height="86" viewBox="0 0 83 86" fill="none" xmlns="http://www.w3.org/2000/svg">
<path d="M76.742 1.34949C78.3642 -0.281909 80.9247 1.66303 79.9345 3.61409L79.8267 3.80291L79.8269 3.80428C67.608 23.1712 61.7815 35.1501 62.0235 45.7444C62.2644 56.2927 68.5322 65.6441 81.1882 79.7411L81.1875 79.7405C81.9471 80.5387 81.7777 81.5792 81.26 82.2301C80.7422 82.881 79.7749 83.2898 78.7924 82.8429L78.7646 82.8308L78.7386 82.8164C62.2104 73.5948 51.6629 69.625 41.2938 71.8113C30.8763 74.0079 20.4631 82.4471 4.34307 98.7111L4.3417 98.7113C2.66708 100.395 -0.00709478 98.2686 1.25699 96.2579L1.25759 96.2571C13.4762 76.8906 19.3285 64.8779 19.1117 54.25C18.8959 43.6694 12.6535 34.2852 -0.00118961 20.1897L-0.000581727 20.189C-1.62174 18.5218 0.458707 15.9076 2.44783 17.1153L3.98057 17.965C19.6359 26.5824 29.8234 30.271 39.8436 28.1836C50.234 26.019 60.6212 17.6145 76.7414 1.35026L76.742 1.34949Z" fill="#89E5E0" stroke="black" stroke-width="1.46265"/>
</svg>
