<svg width="914" height="477" viewBox="0 0 914 477" fill="none" xmlns="http://www.w3.org/2000/svg">
<path d="M63.1548 129.539C86.2528 129.539 106.076 138.92 122.625 157.681C137.139 177.239 144.396 191.399 144.396 200.16H144.927C143.157 207.594 139.44 211.311 133.776 211.311C127.581 211.311 123.687 206.355 122.094 196.444C106.873 166.708 88.8192 151.841 67.9337 151.841H58.907L57.845 152.903V153.965C58.4645 164.319 65.5443 177.416 79.0845 193.258C95.1026 208.214 111.386 218.656 127.935 224.586C133.688 227.152 140.413 229.276 148.113 230.958C151.299 234.055 152.892 237.064 152.892 239.984V240.515C151.476 247.595 147.936 251.135 142.272 251.135H121.563C90.3237 251.135 66.9603 255.914 51.4731 265.472L45.6323 267.065C38.5525 265.383 35.0125 261.843 35.0125 256.445L36.0745 241.046C36.0745 236.622 34.4816 225.117 31.2956 206.532C31.2956 196.267 35.0125 191.134 42.4464 191.134C49.8802 191.134 53.5971 198.39 53.5971 212.904C55.6325 221.223 57.2255 229.719 58.376 238.391H58.907C67.1372 235.206 77.757 232.728 90.7662 230.958V230.427C80.6774 223.258 73.0666 217.24 67.9337 212.373C52.9776 196.444 43.9508 183.523 40.8534 173.611C37.6675 165.027 36.0745 159.009 36.0745 155.558V151.841L35.5435 151.31C37.048 143.699 39.5259 138.566 42.9773 135.911C48.9952 131.663 55.721 129.539 63.1548 129.539ZM250.859 153.965C260.062 153.965 264.664 158.035 264.664 166.177C262.894 172.549 259.354 175.735 254.045 175.735C239.973 175.735 224.929 178.036 208.911 182.638C208.911 186.443 214.929 211.046 226.964 256.445V256.976C226.964 262.817 223.247 266.18 215.814 267.065C208.999 267.065 204.043 258.392 200.946 241.046C192.096 209.63 187.671 191.222 187.671 185.824L149.44 191.134C143.776 191.134 140.236 187.417 138.82 179.983C138.82 171.841 146.254 167.77 161.122 167.77L243.956 153.965H250.859ZM291.479 136.442H295.196C307.851 136.442 320.418 148.655 332.896 173.08L342.454 202.815C348.206 202.815 352.454 206.001 355.198 212.373C355.198 216.09 352.366 219.984 346.702 224.055V224.586C348.826 241.754 349.888 252.551 349.888 256.976C349.888 262.728 345.994 266.091 338.206 267.065C332.277 267.065 328.914 262.817 328.117 254.321L324.931 228.303H324.4C317.321 228.303 301.391 233.259 276.612 243.17V244.232L279.266 252.197C277.851 258.923 274.488 262.286 269.178 262.286V262.817C261.036 262.817 255.903 254.498 253.779 237.86L253.248 231.489C253.248 196.974 260.151 168.832 273.957 147.062C280.682 139.982 286.523 136.442 291.479 136.442ZM275.019 219.807H275.55C286.966 215.825 302.01 211.4 320.683 206.532C315.993 188.125 311.391 175.912 306.878 169.894C301.302 162.106 297.055 158.212 294.134 158.212C288.647 158.212 282.983 172.549 277.143 201.222C276.081 206.178 275.373 212.373 275.019 219.807ZM374.844 134.318C399.978 135.203 415.553 141.752 421.571 153.965C422.279 155.381 422.633 157.327 422.633 159.805V163.522C422.633 166.797 419.801 171.93 414.137 178.921V179.983H423.695C442.014 179.983 454.05 187.771 459.802 203.346V209.187C459.802 220.426 450.244 233.347 431.129 247.949C409.889 260.693 388.119 267.065 365.817 267.065H363.162C352.897 267.065 345.463 263.702 340.861 256.976L340.33 253.79C340.33 249.719 343.162 246.002 348.826 242.639V241.577C348.826 236.002 344.047 211.577 334.489 168.301L332.896 155.558C332.896 149.451 340.684 143.256 356.26 136.973C364.224 135.203 370.419 134.318 374.844 134.318ZM355.198 161.929C355.198 166.885 357.499 177.505 362.1 193.789H362.631C380.154 180.602 392.367 170.514 399.27 163.522L399.801 160.867C394.756 157.681 386.614 156.089 375.375 156.089H373.782C361.392 156.796 355.198 158.743 355.198 161.929ZM366.879 218.745L371.658 244.763C392.632 244.763 412.456 236.622 431.129 220.338C435.731 214.143 438.032 210.072 438.032 208.125C438.032 203.877 432.722 201.753 422.102 201.753H418.916C396.261 201.753 378.915 207.417 366.879 218.745ZM462.988 150.248C468.298 150.248 472.015 154.142 474.139 161.929C474.139 183.08 472.192 204.32 468.298 225.648V226.179C475.732 224.055 488.121 221.754 505.467 219.276C506.529 211.842 509.892 208.125 515.556 208.125H516.087C521.75 208.125 526.706 214.143 530.954 226.179C530.954 236.091 515.556 242.108 484.758 244.232C469.979 247.772 460.421 252.374 456.085 258.038C453.784 263.348 449.536 266.003 443.341 266.003C438.12 266.003 434.757 262.463 433.253 255.383V254.852C433.253 252.109 435.731 247.861 440.686 242.108C448.474 222.019 452.368 194.231 452.368 158.743C454.669 153.08 458.209 150.248 462.988 150.248ZM556.707 151.841C567.946 151.841 579.451 158.566 591.221 172.018C596.885 180.16 599.717 187.24 599.717 193.258C599.098 199.275 596.62 205.293 592.283 211.311C585.203 218.037 571.752 221.4 551.928 221.4C545.468 221.4 537.857 219.984 529.096 217.152V218.745C529.096 230.515 534.406 239.011 545.025 244.232L552.459 245.294H555.114C569.185 244.321 585.823 235.471 605.027 218.745L609.806 218.214C615.116 218.214 618.302 221.754 619.364 228.834C619.364 236.268 607.682 246.179 584.318 258.569C573.61 264.233 563.167 267.065 552.99 267.065C530.777 267.065 515.91 254.321 508.387 228.834C507.325 223.347 506.794 218.214 506.794 213.435C506.794 191.045 516.352 172.638 535.468 158.212C542.105 153.965 549.185 151.841 556.707 151.841ZM533.344 193.789C537.061 197.682 543.609 199.629 552.99 199.629C569.274 199.629 577.416 197.859 577.416 194.32V192.727C577.416 186.532 571.575 180.337 559.893 174.142L555.645 173.611C546.795 173.611 539.362 180.337 533.344 193.789ZM693.303 215.692C694.896 227.727 698.436 233.745 703.923 233.745H710.295C718.968 233.745 728.349 228.789 738.437 218.878C743.393 212.683 745.871 206.134 745.871 199.231C745.871 188.611 741.092 181.355 731.535 177.461C730.119 176.753 728.172 176.399 725.694 176.399H718.791C708.171 178.523 702.861 181.355 702.861 184.895C697.817 195.072 694.631 203.391 693.303 209.851V215.692ZM721.977 154.628H727.818C740.296 154.628 751.624 161.885 761.801 176.399C765.695 182.505 767.642 190.824 767.642 201.355C767.642 214.984 760.562 228.258 746.402 241.179C732.42 251.091 719.145 256.047 706.578 256.047C687.994 256.047 676.312 243.834 671.533 219.409V214.099L671.002 213.568L671.533 213.037V209.851L673.126 201.355L672.595 193.921C682.064 167.726 698.525 154.628 721.977 154.628ZM820.209 153.434C833.219 153.434 841.537 157.858 845.166 166.708V168.832C845.166 174.319 841.626 177.682 834.546 178.921C833.219 178.921 830.387 177.859 826.05 175.735L820.74 175.204C802.156 175.204 786.934 183.877 775.075 201.222C772.598 207.152 771.359 211.931 771.359 215.559C771.359 224.055 776.668 228.303 787.288 228.303H792.067C799.501 228.303 814.192 223.701 836.139 214.497V213.435L826.581 213.966C821.448 213.966 818.262 210.603 817.023 203.877V203.346C817.023 195.205 826.404 191.134 845.166 191.134L860.033 190.603V190.072L860.564 190.603H865.343C872.777 192.373 876.494 195.913 876.494 201.222L868.529 248.48C868.529 260.87 864.635 267.065 856.847 267.065C849.768 265.737 846.228 262.197 846.228 256.445H845.697L846.228 255.914V252.728L848.883 232.551H847.821C821.537 244.586 801.89 250.604 788.881 250.604C768.792 249.365 756.225 241.046 751.181 225.648L749.588 216.09V214.497C749.588 198.479 758.261 183.434 775.606 169.363C790.297 158.743 805.165 153.434 820.209 153.434Z" fill="#BDFFFB"/>
<path d="M63.1548 123.36C86.2528 123.36 106.076 132.741 122.625 151.503C137.139 171.061 144.396 185.22 144.396 193.982H144.927C143.157 201.415 139.44 205.132 133.776 205.132C127.581 205.132 123.687 200.176 122.094 190.265C106.873 160.529 88.8192 145.662 67.9337 145.662H58.907L57.845 146.724V147.786C58.4645 158.14 65.5443 171.238 79.0845 187.079C95.1026 202.035 111.386 212.478 127.935 218.407C133.688 220.973 140.413 223.097 148.113 224.779C151.299 227.876 152.892 230.885 152.892 233.806V234.337C151.476 241.416 147.936 244.956 142.272 244.956H121.563C90.3237 244.956 66.9603 249.735 51.4731 259.293L45.6323 260.886C38.5525 259.205 35.0125 255.665 35.0125 250.266L36.0745 234.868C36.0745 230.443 34.4816 218.938 31.2956 200.353C31.2956 190.088 35.0125 184.955 42.4464 184.955C49.8802 184.955 53.5971 192.212 53.5971 206.725C55.6325 215.044 57.2255 223.54 58.376 232.213H58.907C67.1372 229.027 77.757 226.549 90.7662 224.779V224.248C80.6774 217.08 73.0666 211.062 67.9337 206.194C52.9776 190.265 43.9508 177.344 40.8534 167.432C37.6675 158.848 36.0745 152.83 36.0745 149.379V145.662L35.5435 145.131C37.048 137.52 39.5259 132.387 42.9773 129.732C48.9952 125.484 55.721 123.36 63.1548 123.36ZM250.859 147.786C260.062 147.786 264.664 151.857 264.664 159.998C262.894 166.37 259.354 169.556 254.045 169.556C239.973 169.556 224.929 171.857 208.911 176.459C208.911 180.264 214.929 204.867 226.964 250.266V250.797C226.964 256.638 223.247 260.001 215.814 260.886C208.999 260.886 204.043 252.213 200.946 234.868C192.096 203.451 187.671 185.043 187.671 179.645L149.44 184.955C143.776 184.955 140.236 181.238 138.82 173.804C138.82 165.662 146.254 161.591 161.122 161.591L243.956 147.786H250.859ZM291.479 130.263H295.196C307.851 130.263 320.418 142.476 332.896 166.901L342.454 196.637C348.206 196.637 352.454 199.822 355.198 206.194C355.198 209.911 352.366 213.805 346.702 217.876V218.407C348.826 235.576 349.888 246.372 349.888 250.797C349.888 256.55 345.994 259.913 338.206 260.886C332.277 260.886 328.914 256.638 328.117 248.142L324.931 222.124H324.4C317.321 222.124 301.391 227.08 276.612 236.992V238.054L279.266 246.018C277.851 252.744 274.488 256.107 269.178 256.107V256.638C261.036 256.638 255.903 248.319 253.779 231.682L253.248 225.31C253.248 190.796 260.151 162.653 273.957 140.883C280.682 133.803 286.523 130.263 291.479 130.263ZM275.019 213.628H275.55C286.966 209.646 302.01 205.221 320.683 200.353C315.993 181.946 311.391 169.733 306.878 163.715C301.302 155.928 297.055 152.034 294.134 152.034C288.647 152.034 282.983 166.37 277.143 195.044C276.081 199.999 275.373 206.194 275.019 213.628ZM374.844 128.139C399.978 129.024 415.553 135.573 421.571 147.786C422.279 149.202 422.633 151.149 422.633 153.627V157.344C422.633 160.618 419.801 165.751 414.137 172.742V173.804H423.695C442.014 173.804 454.05 181.592 459.802 197.168V203.008C459.802 214.248 450.244 227.168 431.129 241.77C409.889 254.514 388.119 260.886 365.817 260.886H363.162C352.897 260.886 345.463 257.523 340.861 250.797L340.33 247.611C340.33 243.54 343.162 239.824 348.826 236.461V235.399C348.826 229.823 344.047 205.398 334.489 162.122L332.896 149.379C332.896 143.272 340.684 137.078 356.26 130.794C364.224 129.024 370.419 128.139 374.844 128.139ZM355.198 155.751C355.198 160.706 357.499 171.326 362.1 187.61H362.631C380.154 174.424 392.367 164.335 399.27 157.344L399.801 154.689C394.756 151.503 386.614 149.91 375.375 149.91H373.782C361.392 150.618 355.198 152.565 355.198 155.751ZM366.879 212.566L371.658 238.585C392.632 238.585 412.456 230.443 431.129 214.159C435.731 207.964 438.032 203.893 438.032 201.946C438.032 197.699 432.722 195.575 422.102 195.575H418.916C396.261 195.575 378.915 201.238 366.879 212.566ZM462.988 144.069C468.298 144.069 472.015 147.963 474.139 155.751C474.139 176.902 472.192 198.141 468.298 219.469V220C475.732 217.876 488.121 215.575 505.467 213.097C506.529 205.663 509.892 201.946 515.556 201.946H516.087C521.75 201.946 526.706 207.964 530.954 220C530.954 229.912 515.556 235.93 484.758 238.054C469.979 241.593 460.421 246.195 456.085 251.859C453.784 257.169 449.536 259.824 443.341 259.824C438.12 259.824 434.757 256.284 433.253 249.204V248.673C433.253 245.93 435.731 241.682 440.686 235.93C448.474 215.841 452.368 188.052 452.368 152.565C454.669 146.901 458.209 144.069 462.988 144.069ZM556.707 145.662C567.946 145.662 579.451 152.388 591.221 165.839C596.885 173.981 599.717 181.061 599.717 187.079C599.098 193.097 596.62 199.115 592.283 205.132C585.203 211.858 571.752 215.221 551.928 215.221C545.468 215.221 537.857 213.805 529.096 210.973V212.566C529.096 224.336 534.406 232.832 545.025 238.054L552.459 239.116H555.114C569.185 238.142 585.823 229.292 605.027 212.566L609.806 212.035C615.116 212.035 618.302 215.575 619.364 222.655C619.364 230.089 607.682 240.001 584.318 252.39C573.61 258.054 563.167 260.886 552.99 260.886C530.777 260.886 515.91 248.142 508.387 222.655C507.325 217.168 506.794 212.035 506.794 207.256C506.794 184.866 516.352 166.459 535.468 152.034C542.105 147.786 549.185 145.662 556.707 145.662ZM533.344 187.61C537.061 191.504 543.609 193.451 552.99 193.451C569.274 193.451 577.416 191.681 577.416 188.141V186.548C577.416 180.353 571.575 174.158 559.893 167.963L555.645 167.432C546.795 167.432 539.362 174.158 533.344 187.61ZM693.303 209.513C694.896 221.549 698.436 227.567 703.923 227.567H710.295C718.968 227.567 728.349 222.611 738.437 212.699C743.393 206.504 745.871 199.955 745.871 193.052C745.871 182.433 741.092 175.176 731.535 171.282C730.119 170.574 728.172 170.22 725.694 170.22H718.791C708.171 172.344 702.861 175.176 702.861 178.716C697.817 188.893 694.631 197.212 693.303 203.672V209.513ZM721.977 148.45H727.818C740.296 148.45 751.624 155.706 761.801 170.22C765.695 176.326 767.642 184.645 767.642 195.176C767.642 208.805 760.562 222.08 746.402 235C732.42 244.912 719.145 249.868 706.578 249.868C687.994 249.868 676.312 237.655 671.533 213.23V207.92L671.002 207.389L671.533 206.858V203.672L673.126 195.176L672.595 187.743C682.064 161.547 698.525 148.45 721.977 148.45ZM820.209 147.255C833.219 147.255 841.537 151.68 845.166 160.529V162.653C845.166 168.14 841.626 171.503 834.546 172.742C833.219 172.742 830.387 171.68 826.05 169.556L820.74 169.025C802.156 169.025 786.934 177.698 775.075 195.044C772.598 200.973 771.359 205.752 771.359 209.38C771.359 217.876 776.668 222.124 787.288 222.124H792.067C799.501 222.124 814.192 217.522 836.139 208.318V207.256L826.581 207.787C821.448 207.787 818.262 204.424 817.023 197.699V197.168C817.023 189.026 826.404 184.955 845.166 184.955L860.033 184.424V183.893L860.564 184.424H865.343C872.777 186.194 876.494 189.734 876.494 195.044L868.529 242.301C868.529 254.691 864.635 260.886 856.847 260.886C849.768 259.559 846.228 256.019 846.228 250.266H845.697L846.228 249.735V246.549L848.883 226.372H847.821C821.537 238.408 801.89 244.425 788.881 244.425C768.792 243.186 756.225 234.868 751.181 219.469L749.588 209.911V208.318C749.588 192.3 758.261 177.256 775.606 163.184C790.297 152.565 805.165 147.255 820.209 147.255Z" fill="white"/>
<path d="M58.2118 113.474C81.3097 113.474 101.133 122.855 117.682 141.617C132.196 161.175 139.453 175.334 139.453 184.096H139.984C138.214 191.529 134.497 195.246 128.833 195.246C122.638 195.246 118.744 190.291 117.151 180.379C101.93 150.643 83.8762 135.776 62.9907 135.776H53.9639L52.902 136.838V137.9C53.5214 148.254 60.6013 161.352 74.1414 177.193C90.1595 192.149 106.443 202.592 122.992 208.521C128.745 211.087 135.47 213.211 143.17 214.893C146.356 217.99 147.949 220.999 147.949 223.92V224.451C146.533 231.53 142.993 235.07 137.329 235.07H116.62C85.3806 235.07 62.0172 239.849 46.5301 249.407L40.6893 251C33.6094 249.319 30.0695 245.779 30.0695 240.38L31.1315 224.982C31.1315 220.557 29.5385 209.052 26.3526 190.467C26.3526 180.202 30.0695 175.069 37.5033 175.069C44.9371 175.069 48.6541 182.326 48.6541 196.839C50.6895 205.158 52.2825 213.654 53.4329 222.327H53.9639C62.1942 219.141 72.814 216.663 85.8231 214.893V214.362C75.7344 207.194 68.1236 201.176 62.9907 196.308C48.0346 180.379 39.0078 167.458 35.9104 157.546C32.7245 148.962 31.1315 142.944 31.1315 139.493V135.776L30.6005 135.245C32.105 127.634 34.5829 122.501 38.0343 119.846C44.0522 115.598 50.778 113.474 58.2118 113.474ZM245.916 137.9C255.119 137.9 259.721 141.971 259.721 150.112C257.951 156.484 254.411 159.67 249.102 159.67C235.03 159.67 219.986 161.971 203.968 166.573C203.968 170.378 209.986 194.981 222.021 240.38V240.911C222.021 246.752 218.304 250.115 210.871 251C204.056 251 199.1 242.327 196.003 224.982C187.153 193.565 182.728 175.157 182.728 169.759L144.497 175.069C138.833 175.069 135.293 171.352 133.877 163.918C133.877 155.776 141.311 151.705 156.179 151.705L239.013 137.9H245.916ZM286.536 120.377H290.253C302.908 120.377 315.475 132.59 327.953 157.015L337.511 186.751C343.263 186.751 347.511 189.937 350.255 196.308C350.255 200.025 347.423 203.919 341.759 207.99V208.521C343.883 225.69 344.945 236.486 344.945 240.911C344.945 246.664 341.051 250.027 333.263 251C327.334 251 323.971 246.752 323.174 238.256L319.988 212.238H319.457C312.378 212.238 296.448 217.194 271.669 227.106V228.168L274.323 236.132C272.908 242.858 269.545 246.221 264.235 246.221V246.752C256.093 246.752 250.96 238.433 248.836 221.796L248.305 215.424C248.305 180.91 255.208 152.767 269.014 130.997C275.739 123.917 281.58 120.377 286.536 120.377ZM270.076 203.742H270.607C282.023 199.76 297.067 195.335 315.74 190.467C311.05 172.06 306.448 159.847 301.935 153.829C296.359 146.042 292.112 142.148 289.191 142.148C283.704 142.148 278.04 156.484 272.2 185.158C271.138 190.114 270.43 196.308 270.076 203.742ZM369.901 118.253C395.034 119.138 410.61 125.687 416.628 137.9C417.336 139.316 417.69 141.263 417.69 143.741V147.458C417.69 150.732 414.858 155.865 409.194 162.856V163.918H418.752C437.071 163.918 449.107 171.706 454.859 187.282V193.122C454.859 204.362 445.301 217.282 426.186 231.884C404.946 244.628 383.176 251 360.874 251H358.219C347.954 251 340.52 247.637 335.918 240.911L335.387 237.725C335.387 233.654 338.219 229.938 343.883 226.575V225.513C343.883 219.937 339.104 195.512 329.546 152.236L327.953 139.493C327.953 133.386 335.741 127.192 351.317 120.908C359.281 119.138 365.476 118.253 369.901 118.253ZM350.255 145.865C350.255 150.82 352.556 161.44 357.157 177.724H357.688C375.211 164.538 387.424 154.449 394.327 147.458L394.858 144.803C389.813 141.617 381.671 140.024 370.432 140.024H368.839C356.449 140.732 350.255 142.679 350.255 145.865ZM361.936 202.68L366.715 228.699C387.689 228.699 407.513 220.557 426.186 204.273C430.788 198.078 433.089 194.007 433.089 192.06C433.089 187.813 427.779 185.689 417.159 185.689H413.973C391.318 185.689 373.972 191.352 361.936 202.68ZM458.045 134.183C463.355 134.183 467.072 138.077 469.196 145.865C469.196 167.016 467.249 188.255 463.355 209.583V210.114C470.789 207.99 483.178 205.689 500.524 203.211C501.586 195.777 504.949 192.06 510.613 192.06H511.144C516.807 192.06 521.763 198.078 526.011 210.114C526.011 220.026 510.613 226.044 479.815 228.168C465.036 231.707 455.478 236.309 451.142 241.973C448.841 247.283 444.593 249.938 438.398 249.938C433.177 249.938 429.814 246.398 428.31 239.318V238.787C428.31 236.044 430.788 231.796 435.743 226.044C443.531 205.955 447.425 178.166 447.425 142.679C449.726 137.015 453.266 134.183 458.045 134.183ZM551.764 135.776C563.003 135.776 574.508 142.502 586.278 155.953C591.942 164.095 594.774 171.175 594.774 177.193C594.155 183.211 591.677 189.229 587.34 195.246C580.26 201.972 566.809 205.335 546.985 205.335C540.525 205.335 532.914 203.919 524.153 201.087V202.68C524.153 214.45 529.463 222.946 540.082 228.168L547.516 229.23H550.171C564.242 228.256 580.88 219.406 600.084 202.68L604.863 202.149C610.173 202.149 613.359 205.689 614.421 212.769C614.421 220.203 602.739 230.115 579.375 242.504C568.667 248.168 558.224 251 548.047 251C525.834 251 510.967 238.256 503.444 212.769C502.382 207.282 501.851 202.149 501.851 197.37C501.851 174.98 511.409 156.573 530.525 142.148C537.162 137.9 544.242 135.776 551.764 135.776ZM528.401 177.724C532.118 181.618 538.666 183.565 548.047 183.565C564.331 183.565 572.473 181.795 572.473 178.255V176.662C572.473 170.467 566.632 164.272 554.95 158.077L550.702 157.546C541.852 157.546 534.419 164.272 528.401 177.724ZM688.36 199.627C689.953 211.663 693.493 217.681 698.98 217.681H705.352C714.025 217.681 723.406 212.725 733.494 202.813C738.45 196.618 740.928 190.069 740.928 183.166C740.928 172.547 736.149 165.29 726.592 161.396C725.176 160.688 723.229 160.334 720.751 160.334H713.848C703.228 162.458 697.918 165.29 697.918 168.83C692.874 179.007 689.688 187.326 688.36 193.786V199.627ZM717.034 138.564H722.875C735.353 138.564 746.681 145.82 756.858 160.334C760.752 166.44 762.699 174.759 762.699 185.29C762.699 198.919 755.619 212.194 741.459 225.114C727.476 235.026 714.202 239.982 701.635 239.982C683.051 239.982 671.369 227.769 666.59 203.344V198.034L666.059 197.503L666.59 196.972V193.786L668.183 185.29L667.652 177.857C677.121 151.661 693.582 138.564 717.034 138.564ZM815.266 137.369C828.276 137.369 836.594 141.794 840.223 150.643V152.767C840.223 158.254 836.683 161.617 829.603 162.856C828.276 162.856 825.444 161.794 821.107 159.67L815.797 159.139C797.213 159.139 781.991 167.812 770.132 185.158C767.655 191.087 766.416 195.866 766.416 199.494C766.416 207.99 771.725 212.238 782.345 212.238H787.124C794.558 212.238 809.249 207.636 831.196 198.432V197.37L821.638 197.901C816.505 197.901 813.319 194.538 812.08 187.813V187.282C812.08 179.14 821.461 175.069 840.223 175.069L855.09 174.538V174.007L855.621 174.538H860.4C867.834 176.308 871.551 179.848 871.551 185.158L863.586 232.415C863.586 244.805 859.692 251 851.904 251C844.825 249.673 841.285 246.133 841.285 240.38H840.754L841.285 239.849V236.663L843.94 216.486H842.878C816.594 228.522 796.947 234.539 783.938 234.539C763.849 233.3 751.282 224.982 746.238 209.583L744.645 200.025V198.432C744.645 182.414 753.318 167.37 770.663 153.298C785.354 142.679 800.222 137.369 815.266 137.369Z" fill="black"/>
<path d="M60.2765 302.9C65.7646 302.9 73.0201 304.76 82.043 308.481C86.1358 305.132 89.4845 303.458 92.089 303.458C97.7632 303.458 103.344 310.341 108.832 324.108C116.274 335.177 119.995 341.875 119.995 344.2C118.134 352.014 114.228 355.921 108.274 355.921C103.902 355.921 98.3213 351.27 91.5309 341.968C78.1361 331.549 68.8342 326.34 63.6251 326.34H56.3696C45.3004 326.34 35.4403 333.038 26.7895 346.433C24.5571 351.828 23.4408 355.362 23.4408 357.037V363.734C23.4408 372.478 31.4405 380.664 47.4398 388.291L57.4859 389.407H58.6021C73.8573 389.407 88.1822 384.756 101.577 375.455L105.484 374.896C111.53 374.896 115.251 378.803 116.646 386.617C116.646 393.686 106.042 400.942 84.8335 408.383C74.8805 410.988 65.7646 412.29 57.4859 412.29C37.4867 412.29 20.5572 402.616 6.69738 383.268C3.34869 377.966 1.11623 371.083 -4.82798e-06 362.618C-4.82798e-06 341.875 10.2321 324.759 30.6963 311.271C41.1145 305.69 50.9745 302.9 60.2765 302.9ZM130.733 358.292C132.407 370.943 136.128 377.268 141.895 377.268H148.593C157.709 377.268 167.569 372.059 178.173 361.641C183.382 355.13 185.986 348.246 185.986 340.991C185.986 329.829 180.963 322.201 170.917 318.108C169.429 317.364 167.383 316.992 164.778 316.992H157.522C146.36 319.224 140.779 322.201 140.779 325.922C135.477 336.619 132.128 345.363 130.733 352.153V358.292ZM160.871 294.109H167.01C180.126 294.109 192.033 301.737 202.73 316.992C206.823 323.41 208.869 332.154 208.869 343.223C208.869 357.548 201.428 371.501 186.544 385.082C171.847 395.5 157.895 400.709 144.686 400.709C125.152 400.709 112.873 387.873 107.85 362.199V356.618L107.292 356.06L107.85 355.502V352.153L109.525 343.223L108.966 335.41C118.919 307.876 136.221 294.109 160.871 294.109ZM223.654 289.505C229.235 289.505 233.142 293.598 235.374 301.783C235.374 324.015 233.328 346.34 229.235 368.757V369.315C237.048 367.083 250.071 364.664 268.303 362.06C269.419 354.246 272.954 350.339 278.907 350.339H279.465C285.418 350.339 290.627 356.665 295.092 369.315C295.092 379.733 278.907 386.059 246.536 388.291C231.002 392.012 220.956 396.849 216.398 402.802C213.98 408.383 209.515 411.174 203.003 411.174C197.515 411.174 193.98 407.453 192.399 400.012V399.454C192.399 396.57 195.004 392.105 200.213 386.059C208.398 364.943 212.491 335.735 212.491 298.435C214.91 292.481 218.631 289.505 223.654 289.505ZM302.482 289.505C308.063 289.505 311.97 293.598 314.202 301.783C314.202 324.015 312.156 346.34 308.063 368.757V369.315C315.877 367.083 328.899 364.664 347.131 362.06C348.247 354.246 351.782 350.339 357.735 350.339H358.293C364.247 350.339 369.456 356.665 373.921 369.315C373.921 379.733 357.735 386.059 325.365 388.291C309.83 392.012 299.784 396.849 295.226 402.802C292.808 408.383 288.343 411.174 281.832 411.174C276.343 411.174 272.809 407.453 271.227 400.012V399.454C271.227 396.57 273.832 392.105 279.041 386.059C287.227 364.943 291.319 335.735 291.319 298.435C293.738 292.481 297.459 289.505 302.482 289.505ZM406.704 291.179C418.518 291.179 430.61 298.249 442.982 312.388C448.935 320.945 451.912 328.387 451.912 334.712C451.26 341.037 448.656 347.363 444.098 353.688C436.656 360.758 422.518 364.292 401.681 364.292C394.891 364.292 386.891 362.804 377.682 359.827V361.502C377.682 373.873 383.263 382.803 394.426 388.291L402.239 389.407H405.03C419.82 388.384 437.308 379.082 457.493 361.502L462.516 360.944C468.097 360.944 471.446 364.664 472.562 372.106C472.562 379.919 460.283 390.338 435.726 403.36C424.471 409.314 413.495 412.29 402.797 412.29C379.45 412.29 363.822 398.895 355.916 372.106C354.8 366.339 354.241 360.944 354.241 355.921C354.241 332.387 364.287 313.039 384.38 297.877C391.356 293.412 398.798 291.179 406.704 291.179ZM382.147 335.27C386.054 339.363 392.937 341.41 402.797 341.41C419.913 341.41 428.471 339.549 428.471 335.828V334.154C428.471 327.643 422.331 321.131 410.053 314.62L405.588 314.062C396.286 314.062 388.472 321.131 382.147 335.27ZM500.741 302.9C506.229 302.9 513.485 304.76 522.508 308.481C526.6 305.132 529.949 303.458 532.554 303.458C538.228 303.458 543.809 310.341 549.297 324.108C556.739 335.177 560.459 341.875 560.459 344.2C558.599 352.014 554.692 355.921 548.739 355.921C544.367 355.921 538.786 351.27 531.996 341.968C518.601 331.549 509.299 326.34 504.09 326.34H496.834C485.765 326.34 475.905 333.038 467.254 346.433C465.022 351.828 463.905 355.362 463.905 357.037V363.734C463.905 372.478 471.905 380.664 487.904 388.291L497.951 389.407H499.067C514.322 389.407 528.647 384.756 542.042 375.455L545.948 374.896C551.995 374.896 555.715 378.803 557.111 386.617C557.111 393.686 546.507 400.942 525.298 408.383C515.345 410.988 506.229 412.29 497.951 412.29C477.951 412.29 461.022 402.616 447.162 383.268C443.813 377.966 441.581 371.083 440.465 362.618C440.465 341.875 450.697 324.759 471.161 311.271C481.579 305.69 491.439 302.9 500.741 302.9ZM664.542 293.412C674.216 293.412 679.053 297.69 679.053 306.248C677.193 312.946 673.472 316.294 667.891 316.294C653.101 316.294 637.288 318.713 620.451 323.55C620.451 327.55 626.777 353.409 639.427 401.128V401.686C639.427 407.825 635.52 411.36 627.707 412.29C620.544 412.29 615.335 403.174 612.08 384.943C602.778 351.921 598.127 332.573 598.127 326.899L557.942 332.48C551.989 332.48 548.268 328.573 546.78 320.759C546.78 312.201 554.594 307.923 570.221 307.923L657.287 293.412H664.542ZM706.256 283.366C713.697 285.226 717.418 288.947 717.418 294.528C715.837 310.899 713.232 319.085 709.605 319.085C709.605 319.643 707.744 320.387 704.023 321.317C696.582 319.736 692.861 316.015 692.861 310.155H692.303C693.884 296.853 696.117 289.226 699 287.272C699 286.156 701.419 284.854 706.256 283.366ZM699.559 325.782C704.861 325.782 708.581 329.317 710.721 336.386C709.233 344.107 708.488 351.177 708.488 357.595V363.176C708.488 372.106 709.791 384.756 712.395 401.128C712.395 407.174 708.674 410.709 701.233 411.732V412.29C693.326 412.29 688.861 404.849 687.838 389.966L685.048 366.525C677.606 365.129 673.885 361.595 673.885 355.921V355.362C673.885 351.363 677.42 346.898 684.489 341.968C688.768 331.642 692.489 326.433 695.652 326.34L699.559 325.782ZM735.551 358.292C737.226 370.943 740.947 377.268 746.714 377.268H753.411C762.527 377.268 772.387 372.059 782.991 361.641C788.2 355.13 790.805 348.246 790.805 340.991C790.805 329.829 785.782 322.201 775.736 318.108C774.247 317.364 772.201 316.992 769.596 316.992H762.341C751.179 319.224 745.597 322.201 745.597 325.922C740.295 336.619 736.947 345.363 735.551 352.153V358.292ZM765.69 294.109H771.829C784.945 294.109 796.851 301.737 807.548 316.992C811.641 323.41 813.688 332.154 813.688 343.223C813.688 357.548 806.246 371.501 791.363 385.082C776.666 395.5 762.713 400.709 749.504 400.709C729.97 400.709 717.692 387.873 712.669 362.199V356.618L712.111 356.06L712.669 355.502V352.153L714.343 343.223L713.785 335.41C723.738 307.876 741.04 294.109 765.69 294.109ZM899.911 296.202C906.422 296.202 910.143 300.481 911.073 309.039V343.642L912.189 402.244C912.189 407.267 908.469 410.616 901.027 412.29H900.469C896.19 412.29 891.167 408.383 885.4 400.57L840.751 362.618H839.634C841.123 370.245 842.239 379.175 842.983 389.407C840.565 398.337 836.472 402.802 830.704 402.802H830.146C824.1 402.802 820.565 398.709 819.542 390.524L820.1 387.733C820.1 378.989 815.821 360.385 807.264 331.922L806.706 326.34C808.752 319.271 812.659 315.736 818.426 315.736C822.984 315.736 834.518 324.852 853.029 343.084L887.074 371.548H888.19V309.039C889.028 300.481 892.934 296.202 899.911 296.202Z" fill="#BDFFFB"/>
<path d="M61.5122 302.9C67.0003 302.9 74.2558 304.76 83.2787 308.481C87.3715 305.132 90.7202 303.458 93.3248 303.458C98.9989 303.458 104.58 310.341 110.068 324.108C117.51 335.177 121.231 341.875 121.231 344.2C119.37 352.014 115.463 355.921 109.51 355.921C105.138 355.921 99.5571 351.27 92.7666 341.968C79.3719 331.549 70.07 326.34 64.8609 326.34H57.6054C46.5361 326.34 36.6761 333.038 28.0253 346.433C25.7928 351.828 24.6766 355.362 24.6766 357.037V363.734C24.6766 372.478 32.6762 380.664 48.6755 388.291L58.7216 389.407H59.8378C75.093 389.407 89.418 384.756 102.813 375.455L106.72 374.896C112.766 374.896 116.487 378.803 117.882 386.617C117.882 393.686 107.278 400.942 86.0693 408.383C76.1162 410.988 67.0003 412.29 58.7216 412.29C38.7225 412.29 21.793 402.616 7.93311 383.268C4.58442 377.966 2.35196 371.083 1.23573 362.618C1.23573 341.875 11.4678 324.759 31.9321 311.271C42.3502 305.69 52.2103 302.9 61.5122 302.9ZM131.969 358.292C133.643 370.943 137.364 377.268 143.131 377.268H149.828C158.944 377.268 168.804 372.059 179.408 361.641C184.618 355.13 187.222 348.246 187.222 340.991C187.222 329.829 182.199 322.201 172.153 318.108C170.665 317.364 168.618 316.992 166.014 316.992H158.758C147.596 319.224 142.015 322.201 142.015 325.922C136.713 336.619 133.364 345.363 131.969 352.153V358.292ZM162.107 294.109H168.246C181.362 294.109 193.268 301.737 203.966 316.992C208.058 323.41 210.105 332.154 210.105 343.223C210.105 357.548 202.663 371.501 187.78 385.082C173.083 395.5 159.13 400.709 145.922 400.709C126.388 400.709 114.109 387.873 109.086 362.199V356.618L108.528 356.06L109.086 355.502V352.153L110.76 343.223L110.202 335.41C120.155 307.876 137.457 294.109 162.107 294.109ZM224.889 289.505C230.47 289.505 234.377 293.598 236.61 301.783C236.61 324.015 234.563 346.34 230.47 368.757V369.315C238.284 367.083 251.307 364.664 269.539 362.06C270.655 354.246 274.189 350.339 280.143 350.339H280.701C286.654 350.339 291.863 356.665 296.328 369.315C296.328 379.733 280.143 386.059 247.772 388.291C232.238 392.012 222.192 396.849 217.634 402.802C215.215 408.383 210.75 411.174 204.239 411.174C198.751 411.174 195.216 407.453 193.635 400.012V399.454C193.635 396.57 196.239 392.105 201.448 386.059C209.634 364.943 213.727 335.735 213.727 298.435C216.145 292.481 219.866 289.505 224.889 289.505ZM303.718 289.505C309.299 289.505 313.205 293.598 315.438 301.783C315.438 324.015 313.392 346.34 309.299 368.757V369.315C317.112 367.083 330.135 364.664 348.367 362.06C349.483 354.246 353.018 350.339 358.971 350.339H359.529C365.482 350.339 370.691 356.665 375.156 369.315C375.156 379.733 358.971 386.059 326.6 388.291C311.066 392.012 301.02 396.849 296.462 402.802C294.044 408.383 289.579 411.174 283.067 411.174C277.579 411.174 274.044 407.453 272.463 400.012V399.454C272.463 396.57 275.068 392.105 280.277 386.059C288.462 364.943 292.555 335.735 292.555 298.435C294.974 292.481 298.694 289.505 303.718 289.505ZM407.94 291.179C419.753 291.179 431.846 298.249 444.217 312.388C450.171 320.945 453.147 328.387 453.147 334.712C452.496 341.037 449.892 347.363 445.334 353.688C437.892 360.758 423.753 364.292 402.917 364.292C396.127 364.292 388.127 362.804 378.918 359.827V361.502C378.918 373.873 384.499 382.803 395.661 388.291L403.475 389.407H406.266C421.056 388.384 438.543 379.082 458.728 361.502L463.752 360.944C469.333 360.944 472.681 364.664 473.798 372.106C473.798 379.919 461.519 390.338 436.962 403.36C425.707 409.314 414.73 412.29 404.033 412.29C380.685 412.29 365.058 398.895 357.151 372.106C356.035 366.339 355.477 360.944 355.477 355.921C355.477 332.387 365.523 313.039 385.615 297.877C392.592 293.412 400.033 291.179 407.94 291.179ZM383.383 335.27C387.29 339.363 394.173 341.41 404.033 341.41C421.149 341.41 429.706 339.549 429.706 335.828V334.154C429.706 327.643 423.567 321.131 411.289 314.62L406.824 314.062C397.522 314.062 389.708 321.131 383.383 335.27ZM501.977 302.9C507.465 302.9 514.72 304.76 523.743 308.481C527.836 305.132 531.185 303.458 533.789 303.458C539.464 303.458 545.045 310.341 550.533 324.108C557.974 335.177 561.695 341.875 561.695 344.2C559.835 352.014 555.928 355.921 549.975 355.921C545.603 355.921 540.022 351.27 533.231 341.968C519.837 331.549 510.535 326.34 505.326 326.34H498.07C487.001 326.34 477.141 333.038 468.49 346.433C466.257 351.828 465.141 355.362 465.141 357.037V363.734C465.141 372.478 473.141 380.664 489.14 388.291L499.186 389.407H500.302C515.558 389.407 529.883 384.756 543.277 375.455L547.184 374.896C553.23 374.896 556.951 378.803 558.346 386.617C558.346 393.686 547.742 400.942 526.534 408.383C516.581 410.988 507.465 412.29 499.186 412.29C479.187 412.29 462.258 402.616 448.398 383.268C445.049 377.966 442.817 371.083 441.7 362.618C441.7 341.875 451.932 324.759 472.397 311.271C482.815 305.69 492.675 302.9 501.977 302.9ZM665.778 293.412C675.452 293.412 680.289 297.69 680.289 306.248C678.429 312.946 674.708 316.294 669.127 316.294C654.337 316.294 638.523 318.713 621.687 323.55C621.687 327.55 628.012 353.409 640.663 401.128V401.686C640.663 407.825 636.756 411.36 628.943 412.29C621.78 412.29 616.571 403.174 613.315 384.943C604.013 351.921 599.362 332.573 599.362 326.899L559.178 332.48C553.225 332.48 549.504 328.573 548.016 320.759C548.016 312.201 555.829 307.923 571.457 307.923L658.523 293.412H665.778ZM707.492 283.366C714.933 285.226 718.654 288.947 718.654 294.528C717.073 310.899 714.468 319.085 710.84 319.085C710.84 319.643 708.98 320.387 705.259 321.317C697.818 319.736 694.097 316.015 694.097 310.155H693.539C695.12 296.853 697.353 289.226 700.236 287.272C700.236 286.156 702.655 284.854 707.492 283.366ZM700.794 325.782C706.096 325.782 709.817 329.317 711.957 336.386C710.468 344.107 709.724 351.177 709.724 357.595V363.176C709.724 372.106 711.026 384.756 713.631 401.128C713.631 407.174 709.91 410.709 702.469 411.732V412.29C694.562 412.29 690.097 404.849 689.074 389.966L686.283 366.525C678.842 365.129 675.121 361.595 675.121 355.921V355.362C675.121 351.363 678.656 346.898 685.725 341.968C690.004 331.642 693.725 326.433 696.887 326.34L700.794 325.782ZM736.787 358.292C738.461 370.943 742.182 377.268 747.949 377.268H754.647C763.763 377.268 773.623 372.059 784.227 361.641C789.436 355.13 792.041 348.246 792.041 340.991C792.041 329.829 787.018 322.201 776.971 318.108C775.483 317.364 773.437 316.992 770.832 316.992H763.577C752.414 319.224 746.833 322.201 746.833 325.922C741.531 336.619 738.182 345.363 736.787 352.153V358.292ZM766.925 294.109H773.065C786.18 294.109 798.087 301.737 808.784 316.992C812.877 323.41 814.923 332.154 814.923 343.223C814.923 357.548 807.482 371.501 792.599 385.082C777.902 395.5 763.949 400.709 750.74 400.709C731.206 400.709 718.927 387.873 713.904 362.199V356.618L713.346 356.06L713.904 355.502V352.153L715.579 343.223L715.021 335.41C724.974 307.876 742.275 294.109 766.925 294.109ZM901.147 296.202C907.658 296.202 911.379 300.481 912.309 309.039V343.642L913.425 402.244C913.425 407.267 909.704 410.616 902.263 412.29H901.705C897.426 412.29 892.403 408.383 886.636 400.57L841.986 362.618H840.87C842.358 370.245 843.475 379.175 844.219 389.407C841.8 398.337 837.707 402.802 831.94 402.802H831.382C825.336 402.802 821.801 398.709 820.778 390.524L821.336 387.733C821.336 378.989 817.057 360.385 808.499 331.922L807.941 326.34C809.988 319.271 813.894 315.736 819.662 315.736C824.22 315.736 835.754 324.852 854.265 343.084L888.31 371.548H889.426V309.039C890.263 300.481 894.17 296.202 901.147 296.202Z" fill="white"/>
<path d="M60.2765 293.014C65.7646 293.014 73.0201 294.874 82.043 298.595C86.1358 295.246 89.4845 293.572 92.089 293.572C97.7632 293.572 103.344 300.455 108.832 314.222C116.274 325.291 119.995 331.989 119.995 334.314C118.134 342.128 114.228 346.034 108.274 346.034C103.902 346.034 98.3213 341.384 91.5309 332.082C78.1361 321.663 68.8342 316.454 63.6251 316.454H56.3696C45.3004 316.454 35.4403 323.152 26.7895 336.547C24.5571 341.942 23.4408 345.476 23.4408 347.151V353.848C23.4408 362.592 31.4405 370.778 47.4398 378.405L57.4859 379.521H58.6021C73.8573 379.521 88.1822 374.87 101.577 365.569L105.484 365.01C111.53 365.01 115.251 368.917 116.646 376.731C116.646 383.8 106.042 391.056 84.8335 398.497C74.8805 401.102 65.7646 402.404 57.4859 402.404C37.4867 402.404 20.5572 392.73 6.69738 373.382C3.34869 368.08 1.11623 361.197 -4.82798e-06 352.732C-4.82798e-06 331.989 10.2321 314.873 30.6963 301.385C41.1145 295.804 50.9745 293.014 60.2765 293.014ZM130.733 348.406C132.407 361.057 136.128 367.382 141.895 367.382H148.593C157.709 367.382 167.569 362.173 178.173 351.755C183.382 345.244 185.986 338.36 185.986 331.105C185.986 319.943 180.963 312.315 170.917 308.222C169.429 307.478 167.383 307.106 164.778 307.106H157.522C146.36 309.338 140.779 312.315 140.779 316.036C135.477 326.733 132.128 335.477 130.733 342.267V348.406ZM160.871 284.223H167.01C180.126 284.223 192.033 291.851 202.73 307.106C206.823 313.524 208.869 322.268 208.869 333.337C208.869 347.662 201.428 361.615 186.544 375.196C171.847 385.614 157.895 390.823 144.686 390.823C125.152 390.823 112.873 377.987 107.85 352.313V346.732L107.292 346.174L107.85 345.616V342.267L109.525 333.337L108.966 325.524C118.919 297.99 136.221 284.223 160.871 284.223ZM223.654 279.619C229.235 279.619 233.142 283.712 235.374 291.897C235.374 314.129 233.328 336.454 229.235 358.871V359.429C237.048 357.197 250.071 354.778 268.303 352.174C269.419 344.36 272.954 340.453 278.907 340.453H279.465C285.418 340.453 290.627 346.779 295.092 359.429C295.092 369.847 278.907 376.173 246.536 378.405C231.002 382.126 220.956 386.963 216.398 392.916C213.98 398.497 209.515 401.288 203.003 401.288C197.515 401.288 193.98 397.567 192.399 390.126V389.567C192.399 386.684 195.004 382.219 200.213 376.173C208.398 355.057 212.491 325.849 212.491 288.549C214.91 282.595 218.631 279.619 223.654 279.619ZM302.482 279.619C308.063 279.619 311.97 283.712 314.202 291.897C314.202 314.129 312.156 336.454 308.063 358.871V359.429C315.877 357.197 328.899 354.778 347.131 352.174C348.247 344.36 351.782 340.453 357.735 340.453H358.293C364.247 340.453 369.456 346.779 373.921 359.429C373.921 369.847 357.735 376.173 325.365 378.405C309.83 382.126 299.784 386.963 295.226 392.916C292.808 398.497 288.343 401.288 281.832 401.288C276.343 401.288 272.809 397.567 271.227 390.126V389.567C271.227 386.684 273.832 382.219 279.041 376.173C287.227 355.057 291.319 325.849 291.319 288.549C293.738 282.595 297.459 279.619 302.482 279.619ZM406.704 281.293C418.518 281.293 430.61 288.363 442.982 302.501C448.935 311.059 451.912 318.501 451.912 324.826C451.26 331.151 448.656 337.477 444.098 343.802C436.656 350.871 422.518 354.406 401.681 354.406C394.891 354.406 386.891 352.918 377.682 349.941V351.616C377.682 363.987 383.263 372.917 394.426 378.405L402.239 379.521H405.03C419.82 378.498 437.308 369.196 457.493 351.616L462.516 351.058C468.097 351.058 471.446 354.778 472.562 362.22C472.562 370.033 460.283 380.452 435.726 393.474C424.471 399.428 413.495 402.404 402.797 402.404C379.45 402.404 363.822 389.009 355.916 362.22C354.8 356.453 354.241 351.058 354.241 346.034C354.241 322.501 364.287 303.153 384.38 287.99C391.356 283.526 398.798 281.293 406.704 281.293ZM382.147 325.384C386.054 329.477 392.937 331.523 402.797 331.523C419.913 331.523 428.471 329.663 428.471 325.942V324.268C428.471 317.757 422.331 311.245 410.053 304.734L405.588 304.176C396.286 304.176 388.472 311.245 382.147 325.384ZM500.741 293.014C506.229 293.014 513.485 294.874 522.508 298.595C526.6 295.246 529.949 293.572 532.554 293.572C538.228 293.572 543.809 300.455 549.297 314.222C556.739 325.291 560.459 331.989 560.459 334.314C558.599 342.128 554.692 346.034 548.739 346.034C544.367 346.034 538.786 341.384 531.996 332.082C518.601 321.663 509.299 316.454 504.09 316.454H496.834C485.765 316.454 475.905 323.152 467.254 336.547C465.022 341.942 463.905 345.476 463.905 347.151V353.848C463.905 362.592 471.905 370.778 487.904 378.405L497.951 379.521H499.067C514.322 379.521 528.647 374.87 542.042 365.569L545.948 365.01C551.995 365.01 555.715 368.917 557.111 376.731C557.111 383.8 546.507 391.056 525.298 398.497C515.345 401.102 506.229 402.404 497.951 402.404C477.951 402.404 461.022 392.73 447.162 373.382C443.813 368.08 441.581 361.197 440.465 352.732C440.465 331.989 450.697 314.873 471.161 301.385C481.579 295.804 491.439 293.014 500.741 293.014ZM664.542 283.526C674.216 283.526 679.053 287.804 679.053 296.362C677.193 303.06 673.472 306.408 667.891 306.408C653.101 306.408 637.288 308.827 620.451 313.664C620.451 317.664 626.777 343.523 639.427 391.242V391.8C639.427 397.939 635.52 401.474 627.707 402.404C620.544 402.404 615.335 393.288 612.08 375.056C602.778 342.035 598.127 322.687 598.127 317.012L557.942 322.594C551.989 322.594 548.268 318.687 546.78 310.873C546.78 302.315 554.594 298.037 570.221 298.037L657.287 283.526H664.542ZM706.256 273.479C713.697 275.34 717.418 279.061 717.418 284.642C715.837 301.013 713.232 309.199 709.605 309.199C709.605 309.757 707.744 310.501 704.023 311.431C696.582 309.85 692.861 306.129 692.861 300.269H692.303C693.884 286.967 696.117 279.34 699 277.386C699 276.27 701.419 274.968 706.256 273.479ZM699.559 315.896C704.861 315.896 708.581 319.431 710.721 326.5C709.233 334.221 708.488 341.291 708.488 347.709V353.29C708.488 362.22 709.791 374.87 712.395 391.242C712.395 397.288 708.674 400.823 701.233 401.846V402.404C693.326 402.404 688.861 394.963 687.838 380.08L685.048 356.639C677.606 355.243 673.885 351.709 673.885 346.034V345.476C673.885 341.477 677.42 337.012 684.489 332.082C688.768 321.756 692.489 316.547 695.652 316.454L699.559 315.896ZM735.551 348.406C737.226 361.057 740.947 367.382 746.714 367.382H753.411C762.527 367.382 772.387 362.173 782.991 351.755C788.2 345.244 790.805 338.36 790.805 331.105C790.805 319.943 785.782 312.315 775.736 308.222C774.247 307.478 772.201 307.106 769.596 307.106H762.341C751.179 309.338 745.597 312.315 745.597 316.036C740.295 326.733 736.947 335.477 735.551 342.267V348.406ZM765.69 284.223H771.829C784.945 284.223 796.851 291.851 807.548 307.106C811.641 313.524 813.688 322.268 813.688 333.337C813.688 347.662 806.246 361.615 791.363 375.196C776.666 385.614 762.713 390.823 749.504 390.823C729.97 390.823 717.692 377.987 712.669 352.313V346.732L712.111 346.174L712.669 345.616V342.267L714.343 333.337L713.785 325.524C723.738 297.99 741.04 284.223 765.69 284.223ZM899.911 286.316C906.422 286.316 910.143 290.595 911.073 299.153V333.756L912.189 392.358C912.189 397.381 908.469 400.73 901.027 402.404H900.469C896.19 402.404 891.167 398.497 885.4 390.684L840.751 352.732H839.634C841.123 360.359 842.239 369.289 842.983 379.521C840.565 388.451 836.472 392.916 830.704 392.916H830.146C824.1 392.916 820.565 388.823 819.542 380.638L820.1 377.847C820.1 369.103 815.821 350.499 807.264 322.036L806.706 316.454C808.752 309.385 812.659 305.85 818.426 305.85C822.984 305.85 834.518 314.966 853.029 333.198L887.074 361.662H888.19V299.153C889.028 290.595 892.934 286.316 899.911 286.316Z" fill="black"/>
</svg>
