<svg width="188" height="49" viewBox="0 0 188 49" fill="none" xmlns="http://www.w3.org/2000/svg">
<g clip-path="url(#clip0_63_429)">
<path d="M24.1662 26.4299C26.1632 25.2186 29.0114 23.5425 31.2511 23.5425C34.8354 23.5425 37.8321 26.0815 37.8321 30.9046C37.8321 38.5989 28.6896 45.6927 15.7707 42.6028C15.7279 42.5926 15.6861 42.625 15.6861 42.6687V46.1284V46.5496V46.8281C15.6861 46.8563 15.7032 46.8811 15.7297 46.8913C17.5107 47.5576 19.3916 48.0197 21.3435 48.2486C36.4798 50.0289 49.5574 37.3969 48.31 22.1997C47.9523 17.842 46.4786 13.8348 44.1033 10.445C44.0855 10.4194 44.0538 10.4032 44.0094 10.4263L24.178 21.8947C21.924 23.1812 19.3319 24.7906 17.0966 24.7906C13.5123 24.7906 10.5155 22.2518 10.5155 17.4286C10.5155 9.73345 19.6588 2.64052 32.5779 5.73124C32.6205 5.7415 32.6614 5.70988 32.6614 5.66546V1.57013C32.6614 1.54194 32.6445 1.51631 32.6179 1.50692C29.9942 0.533059 27.1578 0 24.196 0C10.8331 0 0 10.838 0 24.208C0 29.2798 1.55991 33.9868 4.22463 37.8763C4.24512 37.9052 4.2844 37.9147 4.31513 37.8967L24.1662 26.4299Z" fill="#89E5E0"/>
<path d="M61.366 31.5585H66.7851C66.8201 31.5585 66.8491 31.5858 66.8516 31.6208C67.2146 35.8904 70.6418 37.9988 74.5965 37.9988C79.2404 37.9988 81.9213 35.9869 81.9213 32.7775C81.9213 30.2387 80.4374 28.9931 77.3732 28.179L70.336 26.3585C65.8834 25.1609 62.7722 22.5264 62.7722 17.1616C62.7722 11.4133 67.7508 7.62976 74.5965 7.62976C81.2418 7.62976 86.9999 11.0665 86.9999 17.1838H81.5542C81.5201 17.1838 81.4919 17.1581 81.4877 17.124C81.0718 13.6275 78.0237 12.0369 74.5965 12.0369C70.8629 12.0369 68.1819 14.1444 68.1819 17.0181C68.1819 19.5091 69.4746 20.8503 72.5858 21.6644L79.6229 23.4849C84.3146 24.6826 87.3303 27.4128 87.3303 32.3939C87.3303 38.525 82.6385 42.405 74.4523 42.405C66.8671 42.405 61.6647 38.4831 61.2968 31.6303C61.295 31.5909 61.3267 31.5585 61.366 31.5585Z" fill="#89E5E0"/>
<path d="M92.2277 34.7695V21.4926H87.0689C87.0305 21.4926 86.9998 21.4618 86.9998 21.4234V17.1837L89.6952 17.217C91.98 17.217 92.9031 16.6335 92.9031 14.2501L92.8134 10.7383C92.8117 10.6614 92.8732 10.5981 92.95 10.5981H97.4368C97.5119 10.5981 97.5734 10.6596 97.5734 10.7348V17.164H103.836C103.912 17.164 103.973 17.2256 103.973 17.3015V21.4234C103.973 21.4618 103.943 21.4926 103.904 21.4926H97.5743V33.6026C97.5743 36.2773 98.4493 37.7851 100.782 37.7851H103.905C103.944 37.7851 103.974 37.8157 103.974 37.8541V42.3382C103.974 42.3757 103.945 42.4058 103.908 42.4058C102.848 42.4058 101.284 42.4058 99.7129 42.4058C94.5603 42.4049 92.2277 39.5841 92.2277 34.7695Z" fill="#89E5E0"/>
<path d="M106.865 35.7752C106.865 31.0187 110.31 28.572 115.938 27.5529L118.946 27.0191C121.614 26.5337 122.73 26.2613 122.73 24.8534C122.73 22.523 120.935 21.1639 117.927 21.1639C115.089 21.1639 113.014 22.453 112.932 25.0303C112.931 25.067 112.901 25.096 112.864 25.096H107.761C107.723 25.096 107.691 25.0636 107.693 25.0243C107.921 19.8774 112.035 17.184 117.926 17.184C123.991 17.184 128.018 19.8534 128.018 26.0187V42.3572C128.018 42.3948 127.987 42.4248 127.95 42.4248H123.089C123.051 42.4248 123.021 42.394 123.021 42.3572V39.8039C123.021 39.4638 122.827 39.27 122.633 39.27C122.39 39.27 122.293 39.3673 122.002 39.7064C120.207 41.7448 117.781 42.4042 114.773 42.4042C110.213 42.4051 106.865 40.3378 106.865 35.7752ZM122.733 32.0412V29.598C122.122 30.1618 121.042 30.3968 119.445 30.6787L117.144 31.1016C113.716 31.7592 112.401 33.0279 112.401 35.1422C112.401 37.0685 113.716 38.384 116.111 38.384C119.539 38.384 122.733 36.1288 122.733 32.0412Z" fill="#89E5E0"/>
<path d="M137.654 39.8334C137.467 39.6454 137.373 39.5045 137.138 39.5045C136.903 39.5045 136.762 39.6924 136.762 39.9743V42.35C136.762 42.3877 136.732 42.4175 136.695 42.4175H131.947C131.909 42.4175 131.879 42.3868 131.879 42.35V6.05846C131.879 6.02087 131.91 5.99097 131.947 5.99097H136.977C137.014 5.99097 137.044 6.02173 137.044 6.05846V19.5711C137.044 19.853 137.185 20.041 137.42 20.041C137.654 20.041 137.748 19.9 137.936 19.7121C139.627 17.9267 141.505 17.1835 144.464 17.1835C150.7 17.1835 154.334 22.0263 154.334 30.4365C154.334 38.8466 149.581 42.4048 144.463 42.4048C141.41 42.4048 139.392 41.8067 137.654 39.8334ZM148.798 29.7941C148.798 24.8138 147.107 21.431 142.975 21.431C138.842 21.431 137.152 24.8138 137.152 29.7941C137.152 34.7275 138.842 38.1573 142.975 38.1573C147.107 38.1573 148.798 34.7275 148.798 29.7941Z" fill="#89E5E0"/>
<path d="M157.696 5.99097H162.726C162.763 5.99097 162.793 6.02173 162.793 6.05846V42.3372C162.793 42.3748 162.762 42.4048 162.726 42.4048H157.696C157.659 42.4048 157.629 42.374 157.629 42.3372V6.05846C157.627 6.02173 157.659 5.99097 157.696 5.99097Z" fill="#89E5E0"/>
<path d="M177.314 17.184C170.256 17.184 165.964 21.7644 165.964 29.8287C165.964 37.9877 170.495 42.4256 177.266 42.4256C182.286 42.4256 186.284 40.3823 187.338 36.2246C187.346 36.2023 187.343 36.1903 187.331 36.175C187.323 36.1647 187.302 36.1605 187.275 36.1605H181.956C181.94 36.1605 181.931 36.1647 181.917 36.1801C181.913 36.1852 181.908 36.1894 181.905 36.1947C181.172 37.4461 179.64 38.3696 177.266 38.3696C173.308 38.3696 171.449 35.6137 171.353 31.5585H187.886C187.922 31.5585 187.952 31.5312 187.953 31.4962C187.997 30.8315 187.997 29.9039 187.997 29.2563C187.997 21.4304 184.085 17.184 177.314 17.184ZM181.911 27.2821H171.44C171.815 23.3354 173.788 21.1272 177.215 21.1272C180.361 21.1272 182.522 23.0535 182.522 26.6244C182.522 27.0941 182.24 27.2821 181.911 27.2821Z" fill="#89E5E0"/>
</g>
<defs>
<clipPath id="clip0_63_429">
<rect width="188" height="48.4887" fill="white"/>
</clipPath>
</defs>
</svg>
