<svg width="108" height="108" viewBox="0 0 108 108" fill="none" xmlns="http://www.w3.org/2000/svg">
<path d="M27.8065 11.3341L27.928 11.4559L56.5346 40.2549L78.8797 2.15336L78.9555 2.02442L87.6121 0.448827L87.2522 1.06224L61.3968 45.1489L106.551 90.6044L106.989 91.0449L79.8518 95.9842L79.7304 95.8624L49.5016 65.4319L25.8933 105.689L25.8177 105.819L17.1611 107.395L17.5217 106.78L44.6396 60.5389L1.10574 16.713L0.669359 16.2733L27.8065 11.3341ZM48.3737 54.9757L52.7864 59.347L52.8591 59.4191L52.8593 59.4201L82.7239 89.0006L93.9333 86.9603L57.545 50.9162L53.1325 46.5458L24.9168 18.5968L13.7064 20.6372L48.3737 54.9757Z" fill="#89E5E0" stroke="black" stroke-width="0.653004"/>
</svg>
